<?xml version="1.0" encoding="iso-8859-1"?>
<!-- Generator: Adobe Illustrator 18.0.0, SVG Export Plug-In . SVG Version: 6.00 Build 0)  -->
<!DOCTYPE svg PUBLIC "-//W3C//DTD SVG 1.1//EN" "http://www.w3.org/Graphics/SVG/1.1/DTD/svg11.dtd">
<svg version="1.1" id="Capa_1" xmlns="http://www.w3.org/2000/svg" xmlns:xlink="http://www.w3.org/1999/xlink" x="0px" y="0px"
	 viewBox="0 0 491.301 491.301" style="enable-background:new 0 0 491.301 491.301;" xml:space="preserve">
<g>
	<path style="fill:#020202;" d="M393.678,168.594v210.139c0,1.447-1.172,2.618-2.618,2.618H58.364c-1.447,0-2.619-1.171-2.619-2.618
		V152.95c0-1.446,1.172-2.618,2.619-2.618h166.348l33.1-33.1H58.364c-19.693,0-35.718,16.025-35.718,35.718v225.784
		c0,19.693,16.025,35.718,35.718,35.718H169.89v43.75h-17.584c-9.139,0-16.55,7.411-16.55,16.55c0,9.141,7.411,16.55,16.55,16.55
		h144.812c9.139,0,16.55-7.41,16.55-16.55c0-9.139-7.411-16.55-16.55-16.55h-17.584v-43.75H391.06
		c19.693,0,35.718-16.025,35.718-35.718V152.95c0-5.124-1.124-9.972-3.08-14.377L393.678,168.594z"/>
	<path style="fill:#020202;" d="M217.365,189.128l-18.788,65.594c-1.236,4.34-0.033,9.001,3.16,12.194
		c2.36,2.36,5.527,3.636,8.776,3.636c1.139,0,2.287-0.152,3.417-0.477l65.594-18.788c2.029-0.583,3.871-1.673,5.357-3.159
		l130.193-130.186c2.329-2.327,3.638-5.487,3.638-8.776c0-3.289-1.309-6.449-3.638-8.776l-46.813-46.814
		c-4.654-4.655-12.897-4.655-17.551,0L220.526,183.77C219.039,185.257,217.948,187.101,217.365,189.128z M228.606,240.047
		l9.432-32.915l23.483,23.484L228.606,240.047z M359.488,79.905l29.26,29.262L276.108,221.799l-29.253-29.252L359.488,79.905z"/>
	<g>
		<path style="fill:#020202;" d="M455.303,13.342C446.406,4.444,434.745,0,423.076,0c-11.668,0-23.329,4.444-32.227,13.342
			L380.19,24.049c-4.708,4.729-4.713,12.373-0.011,17.108L427.3,88.614c4.738,4.772,12.454,4.78,17.201,0.018l10.802-10.835
			C473.107,59.994,473.107,31.144,455.303,13.342z M437.753,60.244l-1.788,1.786l-29.35-29.351l1.786-1.786
			c3.918-3.919,9.132-6.069,14.675-6.069c5.544,0,10.755,2.15,14.676,6.069c3.919,3.919,6.075,9.132,6.075,14.675
			C443.828,51.112,441.671,56.325,437.753,60.244z"/>
	</g>
</g>
<g>
</g>
<g>
</g>
<g>
</g>
<g>
</g>
<g>
</g>
<g>
</g>
<g>
</g>
<g>
</g>
<g>
</g>
<g>
</g>
<g>
</g>
<g>
</g>
<g>
</g>
<g>
</g>
<g>
</g>
</svg>
